<svg xmlns="http://www.w3.org/2000/svg" viewBox="0 0 512 512">
  <defs>
    <linearGradient id="pink" x1="0" y1="0" x2="1" y2="1">
      <stop offset="0" stop-color="#ff9db8"/>
      <stop offset="1" stop-color="#d0458f"/>
    </linearGradient>
    <linearGradient id="background" x1="0" y1="0" x2="0" y2="1">
      <stop offset="0" stop-color="#1d2029"/>
      <stop offset="1" stop-color="#121419"/>
    </linearGradient>
  </defs>
  <rect width="512" height="512" rx="112" fill="url(#background)"/>
  <g transform="translate(256 256) scale(.84) translate(-256 -288)" fill="none" stroke="url(#pink)" stroke-linecap="round" stroke-linejoin="round">
    <path d="M176 168h160c60 0 92 38 104 98l14 72c8 42-18 70-50 70-26 0-42-16-58-40l-16-24H182l-16 24c-16 24-32 40-58 40-32 0-58-28-50-70l14-72c12-60 44-98 104-98z" stroke-width="34"/>
    <path d="M164 256c18 0 22-36 40-36s30 72 52 72 34-72 52-72 22 36 40 36" stroke-width="28"/>
  </g>
</svg>
